/* XPM */
static char *e31dc73bae644818bc043b8b54a013f48t2S6SiGVZV4I5SF[] = {
/* columns rows colors chars-per-pixel */
"64 64 20 1 ",
"  c #070707",
". c #0E0909",
"X c #120E0C",
"o c #140E0E",
"O c #1A1512",
"+ c #1C1715",
"@ c #1F1714",
"# c #1C1B1B",
"$ c #251F1D",
"% c #2A221F",
"& c #2F2925",
"* c #2D2C27",
"= c #362E2B",
"- c #37342B",
"; c gray20",
": c #453C37",
"> c #454135",
", c #444242",
"< c #574E49",
"1 c #555145",
/* pixels */
"-------------------&&&=------&& -------------------=-&*------** ",
"------------------------------- ------------------------------- ",
">---------------:--:-:--->----> >-------:--:-:--->-->:-:------> ",
">1111111111111111<>:>111111>1>> >111111111>:>111111>1>>>11111>> ",
"-%%%%%%%%%%%%%%%%%%%%%%%%%%%%--X-%%%%%%%%%%%%%%%%%%%%%%%%%%%%--X",
"-%%%%%%%@@%%%%%%%%%%%%%%%%%%%%-X-%%%%%%%@@%%%%%%%%%%%%%%%%%%%%-X",
"%%%%%%@@%%%%%%%%%%%%%%%%%@%%%%-X%%%%%%%O%%%%%%%%%%%%%%%%@@%%%%-X",
"@@@@@@@@@%%%%%%%%%%%%@@@@@@@@%%X@@@OOOO%@%%%%%%%%%%%%%@@@@@@%%%o",
"@@@@@ooooooooo@@@@@@@@@@O$o$$O$o@$O@@ooooooooo@@@@@@@@@@@@$OO@@o",
"oooooooooooooooooooooooo.ooo.XXoXXXXooooooooooooooooooooXXXXXooo",
"ooooooooooooooooooooooooooXoooooooooooooooooooooooooooooX.XXoooo",
"o@@@@@@@@@o@@@@@@@@@oo@@@@O$o$XXoOO$@@@@@@o@@@@@@@@@oo@@%OO$@@oo",
"o%%@@@@@@@o@@@@@@@@@@o@@@$@@@@@Xo%%@@@@@@@o@@@@@@@@@@o@@@@@@@O@o",
"o%%%%@@@@@o%%%%%%%@@@o%%$%%$%@@Xo%%%%%%%%%o@@@%%%%@@@o%%%%%%$$@o",
"o%%%%%%%%@o==%%%%%%%%o%%%%%%&$@@@&$%%%%%%%o%%%%%%%%%%o%%%%%%%%%O",
"O%%====%%%o======%%%%O%%%%%%@@<<><$@%%%%%%O%%%%==%%%%O%%=====%=O",
"O%======%%O========%%OO%&$@@<<::::<<$O$$%OO%$&=====%%OO%%======o",
"OO%%===%%%O%%=====OOOOO%@@<@::::::::O<$o%OOOO$====OOOOO%%%%%%==o",
"oooOOO%%OOOOooooo%%%%%@@<<::@:@@@@:@::<<@@%%%%%oo%%%%%ooooOOOOoo",
"==::O%%==::::OOo%%%%@@<<::::@@....@@::::<<O$%%$$%%%%:::OOOO::::=",
"===::%%%=====::o===%<<::::@@..##$...$O::::<<$&=========O:::=====",
"====:%%========o==%<::::@@.####.@.oO..O$::::<$=========O========",
"=====%%========O=@<:::@@...#...+;.$..X@.@@:::<$========O========",
"=====%%%=======O%<@@:@..#++#X++;$X=.$=$O$.@:$$<$=======O==%%====",
"==%%%%%%=======O%<::@..O#++,,,;..$;X$;;##X.O::<$=======O==%%%%%=",
"===%%%%%%%%%%==O%<::@.XO;+$,X;;;;;@;;..@,X.$::<$==%%%%%OO=%%%%==",
"OOOOOOOoooooooOO%<::@##;;;X,X;XX,,;#XXX.:X.O::<$OOOooooOOOOOOOOO",
"O::====::ooO::==%<::@#X...;;.;.X,;..;,,;O$.O::<&==::oO:::::%%%%O",
"O========:o:====%<::@XX+$$;.$;$X,;.$$;;$O$.O::<%===::O=========O",
"O========:o:====%<::@X+@$,;.$;$X,;$$$,;$$@@$::<%=====O=========O",
"O=========O%====%<::@X@;,,.;$;$XX;$$$,;$$=o@::<%=====O=========O",
"O=========%%====%<::@X##..$;$;$XX;$$$,$$$-o@::<%=====%%========O",
"O=%%%%==%%%%%===$<::@#++$$$;$$$XX#+++,$$;;X@::<$=====%%%=======O",
"O=%%%%%%%%o%%===%@@@@X#;;++,;,$XX#+++,+#++X@@@$$===$%%%%%%%%===O",
"OOOOOO%%%ooooOOO%<::@X;..#;,X;,X;;XXX;;#+.X@::<&OO$%$@OooooOOOOO",
"=:::OO%%OO:::::O%<::@XX&&.X,&&;;;&&&X;++XXX@::<$O%%%=::::oOO::::",
"====::::O======O%<::@X+$&X&,$$$;X$$$;&&&X@X@::<%%%%%====:O::====",
"========O======O%<::@X+$$X&;$$#XX$$,;$$$o@X@::<%%========O:=====",
"========O======O%<::@X+$$;;$;;#X$,,;$$$$XOXO::<%%========O======",
"===%%===O======O%<::@X#,,,$$$##;;#;#+$$$XOX$::<%=========O====%%",
"===%%%%OO====$%O%<::$@X$$X+++++X;;$#+++XX#X@::<%=========O%%%%%=",
"===%%%%OXXo&$$%O%<::OXX$XX+++++X$;$#+++X;#X@::<%O=======OO%%%%%=",
"OOOOOOOOOOOO$OOO%<::@XXXXXXXXXXXXXX;XXX;X#X@::<%OOOOOOOOOOOOOOOO",
"OO:::::==OO::&==%<::@X+&&&X&&&$XXX&;&&&,.#X@::<%==::::::::O:::=O",
"O:========O=====%<::@X+$$&X$$$$XX&$$$$$,.;X@::<%=========:O====O",
"O========%O=====%<::@#+$$++$$$$XX$$$$$$,;;X@::<%=========%%====O",
"O========%O=====%@@@@X#$+++++$$XX$$$$$;.;#X@@@@%========%%%%%==O",
"O========%%=====%<::@..,+X.++$$XX$$$$$;.;+X@::<$==%===%%%Oo%%==O",
"o========%%=====%<::@.+,+X..@$$..$$$$,.;#+X@::<%=%%%%%%%%Ooo%==o",
"o%%====%%%%%%%==%<::@XO@,XX.X$...+@$$,...#X@::<%%%%%%%%%oOOoO=oo",
"ooooOOOOO%OOOOoo%<::@X..,XX.........X,XXX#X@::<%oOOooooooOOooooo",
":::=OOO%%%=::::o%<::@##*;XX*&*$$&&*$X;X@+;X@::<%=====::::OO:::==",
"=====O%%%======o%<::@X,,.X+$$$$$$$$$$;;##.X@::<%========:O%=====",
"=====O%%%======o%<::@...,@+$$$$$$$$$%; .#.X@::<%=========%%=====",
"=====O%%=======O%<::@XO%;,+$$$$$$$$$#.++;+X@::<%=========%%=====",
"=====%%%=======O&<::@XO;..;$$$$$$$$$;.++;+X@::<%=========%%=====",
"==-%%%%========@%<::@X#;;.;$$$$$$$$++;+$%@X@::1%===-%%%%%%%=====",
"=-%%%%%%%%$&$%=O%:::@X....................X@:::%%%=-==%%%%%%%===",
"&*&&&----*********---------*******---------&****&*&&&------*****",
"*-----::&&***------------*******------------*****-----::-&&*****",
">111><1>111><11111111111111111111111<1111111111>>111><1>111><111",
"&%%%%%&&%&&%%%%%%%%%%%%%%%%%%%%%%%%%%%%%%%%%%&&%&%%%%%&&%&&%%%%%",
"%%$@%%%$%%$$%%%%%%%%%%%%%%%%%%%%%%%%%%%%%%%%%%%%%%$@$$%%%%%%%%%%",
"@@@@@%%@O$$%%%%%%%%%%%%%%%%%@@@@%%%%%%%%%%%%%%@@@@@@$%%%%%%%@@O$"
};
